<svg width="56" height="56" viewBox="0 0 56 56" fill="none" xmlns="http://www.w3.org/2000/svg">
<path d="M19.9455 56C16.0421 56 12.747 55.3388 10.0603 54.0163C7.4242 52.6431 5.42181 50.812 4.05308 48.5232C2.68436 46.1835 2 43.564 2 40.6649C2 38.1726 2.48159 35.9855 3.44476 34.1035C4.40794 32.2216 5.8527 30.5686 7.77905 29.1444C9.7561 27.7203 12.1894 26.4741 15.0789 25.406C13.406 23.5241 12.0626 21.8456 11.0488 20.3706C10.0856 18.8956 9.3759 17.4714 8.91966 16.0981C8.51411 14.6739 8.31133 13.1989 8.31133 11.673C8.31133 9.28247 8.79292 7.22253 9.7561 5.49319C10.77 3.71299 12.2908 2.36512 14.3185 1.44959C16.3969 0.483197 19.0583 0 22.3027 0C25.6992 0 28.3859 0.483197 30.363 1.44959C32.3907 2.36512 33.8608 3.63669 34.7733 5.26431C35.6858 6.89192 36.142 8.72298 36.142 10.7575C36.142 12.6903 35.7111 14.4196 34.8494 15.9455C34.0383 17.4205 32.6442 18.7938 30.6671 20.0654C28.6901 21.337 25.978 22.5831 22.5308 23.8038L37.3587 39.5967C37.9163 37.257 38.2965 34.8919 38.4993 32.5014C38.7528 30.1108 38.8795 27.9746 38.8795 26.0926V23.1172H52.5667V23.8801H51.8824C50.3109 23.8801 49.0182 24.1344 48.0043 24.6431C46.9904 25.1517 46.154 26.0163 45.495 27.2371C44.836 28.4069 44.253 30.0345 43.7461 32.1199C43.3912 33.6966 42.9096 35.3751 42.3013 37.1553C41.7437 38.8847 41.034 40.6903 40.1722 42.5722L45.4189 48.1417C46.9397 49.7184 48.2071 50.99 49.2209 51.9564C50.2855 52.8719 51.198 53.5332 51.9584 53.9401C52.7695 54.2961 53.5552 54.4741 54.3156 54.4741H55V55.2371H42.8336L36.5983 48.5232C35.3816 49.8965 33.9876 51.168 32.4161 52.3379C30.8953 53.4569 29.121 54.347 27.0933 55.0082C25.0655 55.6694 22.6829 56 19.9455 56ZM20.858 55.2371C23.8489 55.2371 26.4089 54.525 28.538 53.1008C30.6671 51.6767 32.5935 49.337 34.3171 46.0817L15.7633 26.1689C14.2425 27.1862 13.0258 28.356 12.1133 29.6785C11.2009 31.0009 10.5165 32.5522 10.0603 34.3324C9.65471 36.1126 9.45194 38.198 9.45194 40.5886C9.45194 43.0808 9.68006 45.2679 10.1363 47.1499C10.5925 48.9809 11.2769 50.5068 12.1894 51.7275C13.1526 52.8974 14.3439 53.7875 15.7633 54.3978C17.1827 54.9573 18.8809 55.2371 20.858 55.2371ZM21.8465 23.0409C24.736 21.6676 26.7131 20.0908 27.7776 18.3106C28.8929 16.4796 29.4505 14.0127 29.4505 10.9101C29.4505 8.57039 29.1717 6.66303 28.6141 5.18801C28.0564 3.66213 27.2453 2.54314 26.1808 1.83106C25.1162 1.11898 23.7728 0.762942 22.1506 0.762942C19.8187 0.762942 18.0445 1.55132 16.8278 3.12807C15.6112 4.65395 15.0029 6.94278 15.0029 9.99455C15.0029 11.673 15.1803 13.1226 15.5352 14.3433C15.9407 15.564 16.6251 16.8356 17.5882 18.158C18.6021 19.4296 20.0215 21.0572 21.8465 23.0409Z" fill="#CBB8D4"/>
</svg>
