<svg width="48" height="48" viewBox="0 0 48 48" fill="none" xmlns="http://www.w3.org/2000/svg">
<path d="M3.57114 7.59318C3.4661 6.85341 3.27354 6.28977 2.99345 5.90227C2.74838 5.47955 2.41577 5.19773 1.99564 5.05682C1.61051 4.88068 1.12036 4.79261 0.525167 4.79261H0L0.105033 4.2642H7.98254L10.3983 19.9051C10.6434 21.3494 10.8535 22.7938 11.0285 24.2381C11.2036 25.6824 11.3611 27.0034 11.5012 28.2011C11.6762 29.3989 11.7988 30.3676 11.8688 31.1074H11.9213C13.8469 29.0994 15.615 26.9682 17.2255 24.7136C18.871 22.4591 20.1839 20.2574 21.1642 18.1085C22.1796 15.9244 22.6872 13.9693 22.6872 12.2432C22.6872 10.6932 22.1971 9.63637 21.2168 9.07273C20.2365 8.50909 18.941 8.22727 17.3305 8.22727C17.3305 6.78295 17.7156 5.72614 18.4859 5.05682C19.2561 4.35227 20.0614 4 20.9017 4C22.022 4 22.8973 4.3875 23.5275 5.1625C24.1577 5.90227 24.4728 7.15284 24.4728 8.91421C24.4728 10.5699 24.1577 12.296 23.5275 14.0926C22.9323 15.8892 22.1271 17.6858 21.1117 19.4824C20.1314 21.2438 19.0461 22.9523 17.8557 24.608C16.7003 26.2284 15.5274 27.7256 14.3371 29.0994C13.1467 30.4733 12.0788 31.6358 11.1335 32.5869L7.50989 33.0625L3.57114 7.59318Z" fill="white"/>
<path d="M34.9233 45.4545C32.8227 45.4545 31.0021 45.0494 29.4616 44.2392C27.9561 43.429 26.7832 42.2312 25.943 40.646C25.1027 39.0256 24.6826 36.9824 24.6826 34.5165C24.6826 32.9665 24.8751 31.346 25.2603 29.6551C25.6454 27.929 26.2231 26.2733 26.9933 24.6881C27.7986 23.0676 28.8139 21.6057 30.0393 20.3023C31.2997 18.9988 32.7701 17.9773 34.4507 17.2375C36.1662 16.4625 38.1269 16.075 40.3326 16.075C42.0831 16.075 43.5186 16.3216 44.6389 16.8148C45.7943 17.3079 46.6346 17.942 47.1597 18.717C47.7199 19.4568 48 20.267 48 21.1477C48 21.817 47.8074 22.4335 47.4223 22.9971C47.0372 23.5608 46.477 24.0187 45.7418 24.371C45.0416 24.6881 44.1838 24.8466 43.1685 24.8466C43.2035 24.5295 43.221 24.1949 43.221 23.8426C43.256 23.4551 43.2735 23.0852 43.2735 22.7329C43.2735 20.8659 43.0109 19.3863 42.4857 18.2943C41.9606 17.167 41.0678 16.6034 39.8074 16.6034C38.617 16.6034 37.5142 16.9909 36.4988 17.7659C35.4835 18.5409 34.5732 19.5977 33.768 20.9363C32.9977 22.2398 32.3325 23.7017 31.7723 25.3221C31.2472 26.9074 30.8445 28.5454 30.5644 30.2364C30.2844 31.892 30.1443 33.4597 30.1443 34.9392C30.1443 38.0744 30.5644 40.5227 31.4047 42.2841C32.245 44.0102 33.6629 44.8733 35.6586 44.8733C37.059 44.8733 38.2144 44.5739 39.1247 43.975C40.07 43.3761 40.8402 42.5835 41.4354 41.5972C42.0656 40.5756 42.6083 39.4835 43.0634 38.321C43.3435 38.4267 43.5711 38.6028 43.7461 38.8494C43.9212 39.096 44.0087 39.3602 44.0087 39.642C44.0087 40.417 43.6761 41.2625 43.0109 42.1784C42.3807 43.0591 41.4004 43.8341 40.07 44.5034C38.7395 45.1375 37.024 45.4545 34.9233 45.4545Z" fill="white"/>
</svg>
