<svg width="48" height="48" viewBox="0 0 48 48" xmlns="http://www.w3.org/2000/svg">
 <style>
    path {
      fill: black;
    }
    @media (prefers-color-scheme: dark) {
      path {
        fill: white;
      }
    }
  </style>
<path fill-rule="evenodd" clip-rule="evenodd" d="M9.66953 8.35636C10.0129 8.83636 10.2489 9.53455 10.3777 10.4509L15.206 42L19.6481 41.4109C20.8069 40.2327 22.1159 38.7927 23.5751 37.0909C25.0343 35.3891 26.4721 33.5345 27.8884 31.5273C29.3476 29.4764 30.6781 27.36 31.8798 25.1782C33.1245 22.9527 34.1116 20.7273 34.8412 18.5018C35.6137 16.2764 36 14.1382 36 12.0873C36 9.90545 35.6137 8.35636 34.8412 7.44C34.0687 6.48 32.9957 6 31.6223 6C30.5923 6 29.6052 6.43636 28.6609 7.30909C27.7167 8.13818 27.2446 9.44727 27.2446 11.2364C29.2189 11.2364 30.8069 11.5855 32.0086 12.2836C33.2103 12.9818 33.8112 14.2909 33.8112 16.2109C33.8112 18.3491 33.1888 20.7709 31.9442 23.4764C30.7425 26.1382 29.133 28.8655 27.1159 31.6582C25.1416 34.4509 22.9742 37.0909 20.6137 39.5782H20.5494C20.4635 38.6618 20.3133 37.4618 20.0987 35.9782C19.927 34.4945 19.7339 32.8582 19.5193 31.0691C19.3047 29.28 19.0472 27.4909 18.7468 25.7018L15.7854 6.32727H6.12876L6 6.98182H6.64378C7.37339 6.98182 7.97425 7.09091 8.44635 7.30909C8.96137 7.48364 9.3691 7.83273 9.66953 8.35636ZM39 42C40.6569 42 42 40.6568 42 39C42 37.3431 40.6569 36 39 36C37.3432 36 36 37.3431 36 39C36 40.6568 37.3432 42 39 42Z" fill="white"/>
</svg>
